<?xml version="1.0" encoding="utf-8"?>
<!-- Generator: Adobe Illustrator 16.0.4, SVG Export Plug-In . SVG Version: 6.00 Build 0)  -->
<!DOCTYPE svg PUBLIC "-//W3C//DTD SVG 1.1//EN" "http://www.w3.org/Graphics/SVG/1.1/DTD/svg11.dtd">
<svg version="1.1" id="Layer_1" xmlns="http://www.w3.org/2000/svg" xmlns:xlink="http://www.w3.org/1999/xlink" x="0px" y="0px"
	 width="44.5px" height="40px" viewBox="0 0 44.5 40" enable-background="new 0 0 44.5 40" xml:space="preserve">
<linearGradient id="SVGID_1_" gradientUnits="userSpaceOnUse" x1="-954.4302" y1="552.6533" x2="-954.4302" y2="515.9862" gradientTransform="matrix(1 0 0 -1 976.6802 554)">
	<stop  offset="0" style="stop-color:#60EFFF"/>
	<stop  offset="1" style="stop-color:#1F89C7"/>
</linearGradient>
<path fill="url(#SVGID_1_)" d="M43.221,20.655L22.252,0.146L1.279,20.655l8.36,11.844l6.378-1.465l6.274,8.82l6.262-8.805
	l6.307,1.448L43.221,20.655z M21.381,3.949L18.665,29.05l-5.187-7.074L21.381,3.949z M12.909,21.2L9.68,16.794l11.106-13.49
	L12.909,21.2z M17.804,29.284L17.804,29.284l0.302,0.416l-1.731,0.396l-3.998-5.619l0.714-1.623L17.804,29.284z M22.251,3.616
	l2.729,26.611l-2.736,3.748l-2.726-3.748L22.251,3.616z M26.695,29.285l4.767-6.5l0.746,1.692l-4.01,5.637L26.397,29.7l0.301-0.413
	L26.695,29.285z M25.836,29.05L23.154,3.928l7.919,17.978L25.836,29.05z M23.786,3.3L34.82,16.794l-3.178,4.335L23.786,3.3z
	 M9.998,31.562l-7.63-10.807L17.297,6.163l-8.67,10.604l3.896,5.313l-1.099,2.494l4.071,5.726L9.998,31.562z M22.292,38.418
	l-5.396-7.585l1.742-0.4l3.604,4.959l3.617-4.959l1.814,0.418L22.292,38.418z M29.075,30.316l4.083-5.742l-1.129-2.563l3.845-5.244
	L27.203,6.163l14.928,14.592l-7.628,10.807L29.075,30.316z"/>
</svg>
