<?xml version="1.0" encoding="utf-8"?>
<!-- Generator: Adobe Illustrator 19.2.0, SVG Export Plug-In . SVG Version: 6.00 Build 0)  -->
<svg version="1.1"
	 id="svg4242" xmlns:cc="http://creativecommons.org/ns#" xmlns:dc="http://purl.org/dc/elements/1.1/" xmlns:rdf="http://www.w3.org/1999/02/22-rdf-syntax-ns#"
	 xmlns="http://www.w3.org/2000/svg" xmlns:xlink="http://www.w3.org/1999/xlink" x="0px" y="0px" viewBox="0 0 200 199.7"
	 style="enable-background:new 0 0 200 199.7;" xml:space="preserve">
<style type="text/css">
	.st0{fill:#FF9900;}
</style>
<g>
	<g>
		<polygon class="st0" points="21.6,128.2 32.2,132 32.2,116.3 21.6,112.7 		"/>
		<polygon class="st0" points="34.1,132 44.7,128.2 44.7,112.7 34.1,116.3 		"/>
		<polygon class="st0" points="33.4,108.5 22.7,111.5 33.4,115.1 43.3,111.7 		"/>
		<polygon class="st0" points="9,106.5 19.6,110.3 19.6,94.6 9,91 		"/>
		<polygon class="st0" points="32.1,91 21.5,94.6 21.5,110.3 32.1,106.5 		"/>
		<polygon class="st0" points="20.8,86.8 10,89.8 20.8,93.4 30.7,90 		"/>
		<polygon class="st0" points="44.3,94.6 33.7,91 33.7,106.5 44.3,110.3 		"/>
		<polygon class="st0" points="46.2,110.3 56.8,106.5 56.8,91 46.2,94.6 		"/>
		<polygon class="st0" points="45.5,86.8 34.8,89.8 45.5,93.4 55.5,90 		"/>
		<polygon class="st0" points="46.3,84.8 56.9,88.6 56.9,72.9 46.3,69.3 		"/>
		<polygon class="st0" points="58.9,88.6 69.5,84.8 69.5,69.3 58.9,72.9 		"/>
		<polygon class="st0" points="58.1,65.1 47.4,68.1 58.1,71.7 68.1,68.3 		"/>
		<polygon class="st0" points="71.1,84.8 81.7,88.6 81.7,72.9 71.1,69.3 		"/>
		<polygon class="st0" points="83.6,72.9 83.6,88.6 94.2,84.8 94.2,69.3 		"/>
		<polygon class="st0" points="82.9,65.1 72.1,68.1 82.9,71.7 92.8,68.3 		"/>
	</g>
	<g>
		<polygon points="71.9,131.2 69.1,121.9 67.7,121.9 65.2,131.1 62.5,121.9 60.6,121.9 64.3,134.3 65.8,134.3 68.4,125.1 
			71.2,134.3 72.7,134.3 76.3,121.9 74.7,121.9 		"/>
		<path d="M86.6,123.2c-1-1.1-2.3-1.7-3.9-1.7c-1.6,0-3,0.6-4.1,1.8c-1.1,1.2-1.6,2.8-1.6,4.8c0,1.9,0.5,3.5,1.6,4.7
			c1,1.2,2.4,1.8,4.1,1.8c1.3,0,2.4-0.3,3.3-1c0.9-0.7,1.6-1.6,1.9-2.6l-1.8-0.4c-0.6,1.6-1.8,2.4-3.3,2.4c-0.9,0-1.7-0.3-2.5-1
			c-0.8-0.7-1.2-1.9-1.2-3.8h9C88.1,126,87.6,124.4,86.6,123.2z M86,126.8h-6.8c0.1-1.2,0.5-2.1,1.1-2.8c0.7-0.7,1.5-1,2.4-1
			c0.7,0,1.3,0.2,1.8,0.6c0.5,0.4,0.9,0.8,1.1,1.4C85.9,125.5,86,126.1,86,126.8L86,126.8z"/>
		<path d="M96.2,121.6c-1.5,0-2.8,0.8-3.6,2.4v-6.4h-1.9v16.7h0.9l0.7-2c0.9,1.6,2.2,2.4,3.9,2.4c1.5,0,2.7-0.6,3.7-1.9
			c0.9-1.2,1.4-2.8,1.4-4.6c0-2.1-0.5-3.8-1.4-4.9C98.8,122.1,97.6,121.6,96.2,121.6z M98.3,131.8c-0.6,0.8-1.4,1.3-2.4,1.3
			c-0.8,0-1.5-0.3-2.2-0.9c-0.7-0.6-1.1-1.5-1.2-2.8h0v-2.8c0.1-1,0.5-1.9,1.2-2.5c0.6-0.6,1.4-1,2.2-1c1,0,1.8,0.5,2.4,1.4
			c0.6,0.9,0.9,2.2,0.9,3.8C99.2,129.8,98.9,130.9,98.3,131.8z"/>
		<path d="M112.9,127.1l-2.4-0.4c-1.3-0.2-1.9-0.8-1.9-1.7c0-0.6,0.3-1,0.8-1.3c0.5-0.3,1.1-0.5,1.9-0.5c1.6,0,2.6,0.6,3.1,1.9
			l1.8-0.4c-0.6-2.1-2.3-3.1-5-3.1c-1.4,0-2.5,0.3-3.3,1c-0.8,0.7-1.2,1.6-1.2,2.6c0,0.9,0.3,1.7,0.9,2.3c0.6,0.6,1.4,1,2.4,1.2
			l2.6,0.5c1.4,0.3,2.1,0.9,2.1,1.8c0,0.7-0.3,1.2-0.8,1.5c-0.6,0.4-1.2,0.5-2,0.5c-2.2,0-3.5-0.8-3.9-2.3l-1.8,0.4
			c0.7,2.4,2.5,3.6,5.4,3.5c1.6,0,2.8-0.3,3.7-1c0.9-0.7,1.4-1.6,1.4-2.8C116.7,128.8,115.5,127.6,112.9,127.1z"/>
		<path d="M127.5,123.2c-1-1.1-2.3-1.7-3.9-1.7c-1.6,0-3,0.6-4.1,1.8c-1.1,1.2-1.6,2.8-1.6,4.8c0,1.9,0.5,3.5,1.6,4.7
			c1,1.2,2.4,1.8,4.1,1.8c1.3,0,2.4-0.3,3.3-1c0.9-0.7,1.6-1.6,1.9-2.6l-1.8-0.4c-0.6,1.6-1.8,2.4-3.3,2.4c-0.9,0-1.7-0.3-2.5-1
			c-0.8-0.7-1.2-1.9-1.2-3.8h9C128.9,126,128.4,124.4,127.5,123.2z M126.9,126.8h-6.8c0.1-1.2,0.5-2.1,1.1-2.8c0.7-0.7,1.5-1,2.4-1
			c0.7,0,1.3,0.2,1.8,0.6c0.5,0.4,0.9,0.8,1.1,1.4C126.7,125.5,126.8,126.1,126.9,126.8L126.9,126.8z"/>
		<path d="M134.5,122.2c-0.6,0.4-1.2,1.3-1.8,2.6v-2.9H131v12.4h1.9v-6.6c0-1.3,0.4-2.3,1.1-3.1c0.7-0.8,1.6-1.2,2.6-1.2h0.4v-1.8
			c-0.3,0-0.6,0-0.8,0C135.7,121.6,135.1,121.8,134.5,122.2z"/>
		<polygon points="144,132 140.5,121.9 138.4,121.9 142.8,134.3 144.8,134.3 149.1,121.9 147.4,121.9 		"/>
		<rect x="150.6" y="117.6" width="2.1" height="2.1"/>
		<rect x="150.7" y="121.9" width="1.9" height="12.4"/>
		<path d="M159.8,123.2c1.6,0,2.6,1,3,3.1l1.7-0.3c-0.2-1.3-0.7-2.3-1.5-3.1c-0.8-0.8-1.9-1.2-3.2-1.2c-1.6,0-2.9,0.6-3.8,1.9
			c-0.9,1.2-1.4,2.8-1.4,4.7c0,1.8,0.4,3.4,1.3,4.6c0.9,1.3,2.2,1.9,3.9,1.9c1.3,0,2.3-0.4,3.1-1.2c0.8-0.8,1.4-1.8,1.6-3.2
			l-1.7-0.3c-0.4,2.1-1.4,3.1-3,3.1c-1,0-1.8-0.4-2.4-1.3c-0.6-0.9-0.9-2.1-0.9-3.7c0-1.4,0.3-2.6,0.9-3.5
			C157.9,123.6,158.7,123.2,159.8,123.2z"/>
		<path d="M175.8,123.2c-1-1.1-2.3-1.7-3.9-1.7c-1.6,0-3,0.6-4.1,1.8c-1.1,1.2-1.6,2.8-1.6,4.8c0,1.9,0.5,3.5,1.6,4.7
			c1,1.2,2.4,1.8,4.1,1.8c1.3,0,2.4-0.3,3.3-1c0.9-0.7,1.6-1.6,1.9-2.6l-1.8-0.4c-0.6,1.6-1.8,2.4-3.3,2.4c-0.9,0-1.7-0.3-2.5-1
			c-0.8-0.7-1.2-1.9-1.2-3.8h9C177.3,126,176.8,124.4,175.8,123.2z M175.2,126.8h-6.8c0.1-1.2,0.5-2.1,1.1-2.8c0.7-0.7,1.5-1,2.4-1
			c0.7,0,1.3,0.2,1.8,0.6c0.5,0.4,0.9,0.8,1.1,1.4C175.1,125.5,175.2,126.1,175.2,126.8L175.2,126.8z"/>
		<path d="M185.2,127.1l-2.4-0.4c-1.3-0.2-1.9-0.8-1.9-1.7c0-0.6,0.3-1,0.8-1.3c0.5-0.3,1.1-0.5,1.9-0.5c1.6,0,2.6,0.6,3.1,1.9
			l1.8-0.4c-0.6-2.1-2.3-3.1-5-3.1c-1.4,0-2.5,0.3-3.3,1c-0.8,0.7-1.2,1.6-1.2,2.6c0,0.9,0.3,1.7,0.9,2.3c0.6,0.6,1.4,1,2.4,1.2
			l2.6,0.5c1.4,0.3,2.1,0.9,2.1,1.8c0,0.7-0.3,1.2-0.8,1.5c-0.6,0.4-1.2,0.5-2,0.5c-2.2,0-3.5-0.8-3.9-2.3l-1.8,0.4
			c0.7,2.4,2.5,3.6,5.4,3.5c1.6,0,2.8-0.3,3.7-1c0.9-0.7,1.4-1.6,1.4-2.8C189,128.8,187.8,127.6,185.2,127.1z"/>
		<path d="M149.5,108.4c-2.3-1.3-5-1.7-7.6-1.6l6.9-9.9c0.6-0.9,1-1.4,1-1.9l0-2.5c0-0.4-0.3-0.8-0.8-0.8l-13.3,0
			c-0.4,0-0.8,0.3-0.8,0.8v3c0,0.4,0.3,0.7,0.8,0.7l7,0l-8,11.5c-0.5,0.7-0.5,1.6-0.5,2v3c0,0.4,0.5,0.9,0.9,0.7
			c4.5-2.4,10-2.2,14.1,0c0.5,0.3,1-0.2,1-0.7v-3.2C150.2,109.1,150,108.7,149.5,108.4z"/>
		<path d="M109.8,113.3l0-13.1c0-2.2,0.3-4.8-1-6.5c-1.1-1.6-3-2.3-4.7-2.3c-2.4,0-4.6,1.2-5.6,3.9c-1.1-2.6-2.7-3.9-5.3-3.9
			c-2.5,0-4.3,1.2-5.3,3.9h-0.1v-2.7c0-0.4-0.3-0.7-0.7-0.7l-3.8,0c-0.4,0-0.8,0.3-0.8,0.7l0,20.8c0,0.4,0.3,0.7,0.7,0.7h4.1
			c0.4,0,0.8-0.3,0.8-0.7l0-11c0-2.4-0.1-5.7,2.8-5.7c2.9,0,2.5,3.4,2.5,5.7l0,11c0,0.4,0.3,0.7,0.7,0.7h4c0.4,0,0.8-0.3,0.8-0.7
			v-11c0-1.2,0-2.9,0.4-4c0.4-1.1,1.4-1.7,2.4-1.7c1.2,0,2.1,0.4,2.4,1.8c0.2,0.8,0.1,3,0.1,3.9l0,11c0,0.4,0.3,0.7,0.7,0.7h4
			C109.4,114,109.8,113.7,109.8,113.3z"/>
		<path d="M159.6,91.4c-5.8,0-9,5-9,11.5c0,6.4,3.2,11.6,9,11.6c5.6,0,9.2-5,9.2-11.4C168.8,96.5,165.6,91.4,159.6,91.4z
			 M159.6,110.2c-3.2,0-3.1-4.9-3.1-7.4c0-2.5,0.2-6.6,3.2-6.6c1.3,0,2.2,0.6,2.6,2c0.5,1.7,0.6,3.8,0.6,5.5
			C162.9,106.3,162.7,110.2,159.6,110.2z"/>
		<path d="M188.2,93.8c-1.1-1.8-2.9-2.5-4.7-2.5c-2.8,0-4.4,1.4-5.5,4.2h-0.1v-3.2c-0.1-0.3-0.4-0.6-0.7-0.6l-3.8,0
			c-0.4,0-0.7,0.3-0.8,0.7l0,20.8c0,0.4,0.3,0.7,0.7,0.7h4c0.4,0,0.8-0.3,0.8-0.7v-11.2c0-1.4,0.1-2.7,0.6-3.9
			c0.5-1,1.4-1.7,2.3-1.7c2.8,0,2.5,3.3,2.5,5.6v11.3c0,0.4,0.3,0.6,0.7,0.7h4.1c0.4,0,0.7-0.3,0.8-0.7v-13.1
			C189.3,98.3,189.3,95.5,188.2,93.8z"/>
		<path d="M124.8,100c-2.4,0.3-5.4,0.4-7.6,1.4c-2.5,1.1-4.3,3.3-4.3,6.6c0,4.2,2.7,6.3,6.1,6.3c2.9,0,4.5-0.7,6.7-2.9
			c0.7,1.1,1,1.6,2.3,2.7c0.3,0.2,0.7,0.1,1-0.1l0,0c0.8-0.7,2.3-2,3.1-2.7c0.3-0.3,0.3-0.7,0-1.1c-0.7-1-1.5-1.9-1.5-3.8v-6.3
			c0-2.7,0.2-5.1-1.8-7c-1.6-1.5-4.1-2-6.1-2c-3.9,0-8.2,1.4-9.1,6.2c-0.1,0.5,0.3,0.8,0.6,0.8l3.9,0.4c0.4,0,0.6-0.4,0.7-0.7
			c0.3-1.6,1.7-2.4,3.3-2.4c0.8,0,1.8,0.3,2.3,1.1c0.6,0.8,0.5,2,0.5,2.9V100z M124.1,108.4c-0.6,1.1-1.7,1.8-2.8,1.8
			c-1.6,0-2.5-1.2-2.5-2.9c0-3.5,3.1-4.1,6-4.1v0.9h0C124.8,105.7,124.9,107,124.1,108.4z"/>
		<path d="M79.5,110.2c-0.7-1-1.5-1.9-1.5-3.8v-6.3c0-2.7,0.2-5.1-1.8-7c-1.6-1.5-4.1-2-6.1-2c-3.9,0-8.2,1.4-9.1,6.2
			c-0.1,0.5,0.3,0.8,0.6,0.8l3.9,0.4c0.4,0,0.6-0.4,0.7-0.7c0.3-1.6,1.7-2.4,3.3-2.4c0.8,0,1.8,0.3,2.3,1.1c0.6,0.8,0.5,2,0.5,2.9
			v0.5c-2.4,0.3-5.4,0.4-7.6,1.4c-2.5,1.1-4.3,3.3-4.3,6.6c0,4.2,2.7,6.3,6.1,6.3c2.9,0,4.5-0.7,6.7-2.9c0.7,1.1,1,1.6,2.3,2.7
			c0.3,0.2,0.7,0.1,1-0.1l0,0c0.8-0.7,2.3-2,3.1-2.7C79.8,111,79.7,110.6,79.5,110.2z M71.5,108.4c-0.6,1.1-1.7,1.8-2.8,1.8
			c-1.6,0-2.5-1.2-2.5-2.9c0-3.5,3.1-4.1,6-4.1v0.9h0C72.2,105.7,72.3,107,71.5,108.4z"/>
	</g>
</g>
</svg>
