<?xml version="1.0" encoding="utf-8"?>
<!-- Generator: Adobe Illustrator 19.2.0, SVG Export Plug-In . SVG Version: 6.00 Build 0)  -->
<svg version="1.1"
	 id="svg4242" xmlns:cc="http://creativecommons.org/ns#" xmlns:dc="http://purl.org/dc/elements/1.1/" xmlns:rdf="http://www.w3.org/1999/02/22-rdf-syntax-ns#"
	 xmlns="http://www.w3.org/2000/svg" xmlns:xlink="http://www.w3.org/1999/xlink" x="0px" y="0px" viewBox="0 0 200 199.7"
	 style="enable-background:new 0 0 200 199.7;" xml:space="preserve">
<style type="text/css">
	.st0{fill:#00BCF2;}
</style>
<g>
	<g>
		<polygon class="st0" points="94.6,78.4 147.2,78.4 147.2,31.9 94.6,39.3 		"/>
		<polygon class="st0" points="93,78.4 93,39.5 52.7,45.1 52.7,78.4 		"/>
		<polygon class="st0" points="94.6,80 94.6,119.1 147.2,126.4 147.2,80 		"/>
		<polygon class="st0" points="93,80 52.7,80 52.7,113.2 93,118.8 		"/>
	</g>
	<g>
		<g>
			<g>
				<g>
					<path class="st0" d="M29.8,167.3h-2.3V154c0-1,0.1-2.3,0.2-3.9h-0.1c-0.2,0.9-0.4,1.5-0.6,1.9l-6.7,15.2h-1.1l-6.7-15
						c-0.2-0.4-0.4-1.1-0.6-2h-0.1c0.1,0.8,0.1,2,0.1,3.9v13.3H9.5v-19.8h3.1l6.1,13.9c0.5,1,0.7,1.8,0.9,2.3h0.1
						c0.5-1.2,0.8-2,0.9-2.4l6.2-13.8h3L29.8,167.3L29.8,167.3z"/>
				</g>
			</g>
			<g>
				<g>
					<path class="st0" d="M36.5,148.1c0,0.4-0.1,0.8-0.4,1c-0.3,0.3-0.6,0.4-1,0.4c-0.4,0-0.8-0.1-1-0.4c-0.3-0.3-0.4-0.6-0.4-1.1
						c0-0.4,0.1-0.7,0.4-1c0.3-0.3,0.6-0.4,1-0.4c0.4,0,0.8,0.1,1,0.4C36.4,147.4,36.5,147.7,36.5,148.1z M36.2,167.3H34v-14.2h2.2
						C36.2,153.2,36.2,167.3,36.2,167.3z"/>
				</g>
			</g>
			<g>
				<g>
					<path class="st0" d="M49.6,166.7c-1.1,0.7-2.3,1-3.9,1c-1.3,0-2.4-0.3-3.5-0.9c-1-0.6-1.8-1.4-2.4-2.6
						c-0.6-1.1-0.8-2.3-0.8-3.7c0-2.3,0.7-4.2,2-5.6c1.3-1.4,3.2-2.1,5.4-2.1c1.2,0,2.3,0.2,3.3,0.7v2.3c-1-0.7-2.1-1.1-3.4-1.1
						c-1.4,0-2.7,0.5-3.6,1.5c-0.9,1-1.3,2.4-1.3,4.1c0,1.6,0.4,3,1.3,3.9c0.9,0.9,2,1.4,3.5,1.4c1.2,0,2.4-0.4,3.5-1.2v2.2
						L49.6,166.7L49.6,166.7z"/>
				</g>
			</g>
			<g>
				<g>
					<path class="st0" d="M59.6,155.5c-0.4-0.3-1-0.4-1.7-0.4c-1,0-1.8,0.5-2.4,1.4c-0.6,0.9-0.9,2.1-0.9,3.7v7.2h-2.2v-14.3h2.2v3
						h0.1c0.3-1,0.8-1.7,1.4-2.3c0.6-0.6,1.4-0.8,2.2-0.8c0.6,0,1,0.1,1.3,0.2V155.5L59.6,155.5z"/>
				</g>
			</g>
			<g>
				<g>
					<path class="st0" d="M73.8,160.2c0,2.2-0.6,4.1-1.9,5.4c-1.3,1.3-3,2-5.1,2c-2.1,0-3.8-0.7-5-2c-1.2-1.3-1.8-3.1-1.8-5.3
						c0-2.3,0.6-4.2,1.9-5.5c1.3-1.3,3.1-2,5.3-2c2.1,0,3.8,0.6,4.9,1.9C73.2,156.1,73.8,158,73.8,160.2z M71.5,160.3
						c0-1.7-0.4-3.2-1.2-4.1c-0.8-0.9-1.9-1.4-3.4-1.4c-1.4,0-2.7,0.5-3.5,1.4c-0.8,1-1.2,2.3-1.2,4.1c0,1.7,0.4,3.1,1.3,4
						c0.8,0.9,2,1.4,3.5,1.4s2.7-0.5,3.4-1.4C71.1,163.4,71.5,162,71.5,160.3z"/>
				</g>
			</g>
			<g>
				<g>
					<path class="st0" d="M84.3,163.6c0,1.2-0.5,2.2-1.4,3c-0.9,0.8-2.2,1.1-3.8,1.1c-1.3,0-2.5-0.3-3.5-0.8v-2.4
						c1.1,0.9,2.3,1.3,3.7,1.3c1.8,0,2.7-0.6,2.7-1.9c0-0.5-0.2-1-0.5-1.3c-0.3-0.3-1.1-0.8-2.3-1.3c-1.2-0.5-2.1-1.1-2.7-1.7
						c-0.5-0.6-0.8-1.4-0.8-2.4c0-1.1,0.5-2.1,1.4-3c0.9-0.8,2.1-1.2,3.6-1.2c1.1,0,2.1,0.2,3.1,0.7v2.2c-0.9-0.7-2-1-3.2-1
						c-0.7,0-1.3,0.2-1.8,0.5c-0.4,0.4-0.7,0.8-0.7,1.4c0,0.6,0.2,1.1,0.5,1.4c0.3,0.3,1.1,0.7,2.1,1.2c1.3,0.6,2.2,1.1,2.9,1.8
						C84,161.8,84.3,162.7,84.3,163.6z"/>
				</g>
			</g>
			<g>
				<g>
					<path class="st0" d="M99.7,160.2c0,2.2-0.6,4.1-1.9,5.4c-1.3,1.3-3,2-5.1,2c-2.1,0-3.8-0.7-5-2c-1.2-1.3-1.8-3.1-1.8-5.3
						c0-2.3,0.6-4.2,1.9-5.5c1.3-1.3,3.1-2,5.3-2c2.1,0,3.8,0.6,4.9,1.9C99.1,156.1,99.7,158,99.7,160.2z M97.3,160.3
						c0-1.7-0.4-3.2-1.2-4.1c-0.8-0.9-1.9-1.4-3.4-1.4s-2.7,0.5-3.5,1.4c-0.8,1-1.2,2.3-1.2,4.1c0,1.7,0.4,3.1,1.3,4
						c0.8,0.9,2,1.4,3.5,1.4s2.7-0.5,3.4-1.4C97,163.4,97.3,162,97.3,160.3z"/>
				</g>
			</g>
			<g>
				<g>
					<path class="st0" d="M108.9,148.4c-0.4-0.2-0.9-0.4-1.5-0.4c-1.6,0-2.3,1-2.3,3v2.2h3.4v1.9h-3.4v12.2h-2.3v-12.2h-2.4v-1.9
						h2.4v-2.2c0-1.4,0.4-2.5,1.2-3.5c0.9-0.9,2-1.4,3.4-1.4c0.7,0,1.2,0.1,1.6,0.2L108.9,148.4L108.9,148.4z"/>
				</g>
			</g>
			<g>
				<g>
					<path class="st0" d="M116.6,167.2c-0.5,0.3-1.2,0.4-2.1,0.4c-2.4,0-3.7-1.4-3.7-4.2v-8.4h-2.4v-1.9h2.4v-3.5l2.2-0.7v4.2h3.6
						v1.9H113v8c0,0.9,0.2,1.6,0.5,2c0.3,0.4,0.8,0.6,1.6,0.6c0.6,0,1-0.1,1.4-0.4L116.6,167.2L116.6,167.2z"/>
				</g>
			</g>
		</g>
		<g>
			<g>
				<g>
					<path class="st0" d="M140.2,167.5h-2.5l-2-5.5h-8.5l-1.9,5.5h-2.5l7.4-19.8h2.4L140.2,167.5z M134.8,159.8l-3.2-8.5
						c-0.1-0.2-0.2-0.6-0.3-1.3h-0.1c-0.1,0.6-0.2,1-0.3,1.3l-3.1,8.5H134.8z"/>
				</g>
			</g>
			<g>
				<g>
					<path class="st0" d="M152.9,153.9l-8.5,11.6h8.3v1.9h-11.6v-0.7l8.4-11.5h-7.5v-1.9h10.9v0.6L152.9,153.9L152.9,153.9z"/>
				</g>
			</g>
			<g>
				<g>
					<path class="st0" d="M166.5,167.5h-2.2v-2.2h-0.1c-0.9,1.7-2.3,2.5-4.4,2.5c-3.4,0-5.1-2-5.1-6v-8.5h2.2v8.2
						c0,3,1.1,4.5,3.5,4.5c1.1,0,2-0.4,2.8-1.2c0.7-0.8,1-1.8,1-3.2v-8.3h2.2v14.2L166.5,167.5L166.5,167.5z"/>
				</g>
			</g>
			<g>
				<g>
					<path class="st0" d="M177.7,155.6c-0.4-0.3-1-0.4-1.7-0.4c-1,0-1.8,0.5-2.4,1.4c-0.6,0.9-0.9,2.1-0.9,3.7v7.2h-2.2v-14.3h2.2v3
						h0.1c0.3-1,0.8-1.7,1.4-2.3c0.6-0.6,1.4-0.8,2.2-0.8c0.6,0,1,0.1,1.3,0.2L177.7,155.6L177.7,155.6z"/>
				</g>
			</g>
			<g>
				<g>
					<path class="st0" d="M190.3,160.9h-10c0,1.6,0.4,2.9,1.2,3.7c0.8,0.8,1.9,1.2,3.4,1.2c1.6,0,3.1-0.5,4.4-1.5v2.1
						c-1.2,0.9-2.9,1.3-4.9,1.3s-3.6-0.6-4.7-1.9c-1.1-1.3-1.7-3.1-1.7-5.4c0-1.4,0.3-2.7,0.8-3.9c0.6-1.1,1.3-2,2.3-2.7
						s2.1-0.9,3.4-0.9c1.8,0,3.3,0.6,4.3,1.8c1,1.2,1.5,2.9,1.5,5L190.3,160.9L190.3,160.9z M188,159c0-1.3-0.3-2.3-0.9-3.1
						c-0.6-0.7-1.4-1.1-2.6-1.1c-1,0-1.9,0.4-2.7,1.1c-0.7,0.7-1.2,1.7-1.4,3h7.5L188,159L188,159z"/>
				</g>
			</g>
		</g>
	</g>
</g>
</svg>
