<?xml version="1.0" encoding="UTF-8" standalone="no"?>
<svg width="693px" height="350px" viewBox="0 0 693 350" version="1.1" xmlns="http://www.w3.org/2000/svg" xmlns:xlink="http://www.w3.org/1999/xlink">
    <!-- Generator: Sketch 45.2 (43514) - http://www.bohemiancoding.com/sketch -->
    <title>grid-whats-new</title>
    <desc>Created with Sketch.</desc>
    <defs>
        <rect id="path-1" x="0" y="0" width="720" height="350"></rect>
    </defs>
    <g id="Page-1" stroke="none" stroke-width="1" fill="none" fill-rule="evenodd">
        <g id="PatternFly-Angular" transform="translate(-747.000000, -40.000000)">
            <g id="grid-whats-new" transform="translate(747.000000, 40.000000)">
                <mask id="mask-2" fill="white">
                    <use xlink:href="#path-1"></use>
                </mask>
                <g id="Mask"></g>
                <g mask="url(#mask-2)" id="Isolation_Mode">
                    <g transform="translate(0.000000, -286.000000)">
                        <g>
                            <g id="Group">
                                <g opacity="0.25" id="Shape" stroke-width="1.2981" stroke="#00A4E4">
                                    <polygon points="332.880741 337.802453 520.951111 405.774898 624.942963 319.188226 658.208148 216.886263 640.431111 127.476942 580.462222 41.8820114 456.938519 0.152575634 364.162222 114.431725 347.834815 237.102535"></polygon>
                                    <polygon points="235.068889 720.767294 309.915556 705.357155 453.734074 607.861325 434.125926 428.661243 332.880741 337.802453 190.054074 376.404088 160.298519 453.454783 0.228888889 562.012347"></polygon>
                                    <polygon points="453.123704 608.853066 316.248148 593.366639 235.908148 721.911611 233.39037 835.427882 280.007407 908.282747 348.75037 933 514.618519 901.264268 580.004444 734.88054 555.055556 662.788553"></polygon>
                                    <polygon points="656.148148 496.938839 519.959259 405.622322 434.04963 429.652984 317.545185 534.548733 309.839259 706.348896 465.102222 796.063369 638.065926 771.269828 720.38963 634.9435"></polygon>
                                    <polyline points="585.955556 108.633851 332.880741 337.802453 347.834815 237.102535 519.959259 405.622322 453.123704 608.853066 720.38963 634.9435 580.004444 734.88054 638.065926 771.269828 656.148148 496.938839 316.248148 593.366639 465.102222 796.063369 348.75037 933 309.839259 706.348896 555.055556 662.788553 656.148148 496.938839 434.04963 429.652984 316.248148 593.366639 160.298519 453.454783 332.880741 337.802453 624.942963 319.188226 517.975556 51.7231398 347.834815 237.102535 658.208148 216.886263"></polyline>
                                    <polyline points="190.054074 376.404088 440.84 376.785527 574.511111 224.896484 580.462222 41.8820114 364.162222 114.431725 624.942963 319.188226"></polyline>
                                    <polyline points="161.366667 511.662388 317.545185 534.548733 267.037037 381.973099 86.2148148 603.894358 309.839259 706.348896 233.39037 835.427882 465.102222 796.063369 555.055556 662.788553 504.165926 451.547588 317.545185 534.548733 86.2148148 603.894358"></polyline>
                                    <polyline points="332.880741 337.802453 317.545185 534.548733 453.123704 608.853066 465.102222 796.063369 514.618519 901.264268 280.007407 908.282747 309.839259 706.348896 580.004444 734.88054 647.297778 628.611611 555.055556 662.788553 472.655556 549.424857"></polyline>
                                </g>
                                <g transform="translate(379.192593, 315.831562)" fill="#81C9EF">
                                    <path d="M1.75481481,286.308177 C1.14444444,286.231889 0.686666667,285.697874 0.762962963,285.087572 C0.839259259,284.477269 1.37333333,284.019542 1.9837037,284.09583 C2.59407407,284.172118 3.05185185,284.706132 2.97555556,285.316435 C2.89925926,285.926738 2.36518519,286.384464 1.75481481,286.308177 Z" id="Shape"></path>
                                    <ellipse id="Oval" cx="125.736296" cy="135.487163" rx="2.97555556" ry="2.97522486"></ellipse>
                                    <path d="M54.4755556,116.644072 C53.2548148,116.491496 52.4155556,115.347179 52.5681481,114.126574 C52.7207407,112.905969 53.8651852,112.066803 55.0859259,112.219379 C56.3066667,112.371954 57.1459259,113.516271 56.9933333,114.736877 C56.8407407,115.957482 55.6962963,116.796648 54.4755556,116.644072 Z" id="Shape"></path>
                                    <path d="M109.714074,36.0841374 C108.493333,35.9315617 107.654074,34.7872445 107.806667,33.5666394 C107.959259,32.3460343 109.103704,31.5068684 110.324444,31.659444 C111.545185,31.8120196 112.384444,32.9563369 112.231852,34.1769419 C112.079259,35.3212592 110.934815,36.236713 109.714074,36.0841374 Z" id="Shape"></path>
                                    <path d="M69.1244444,242.595258 C67.9037037,242.442682 67.0644444,241.298365 67.217037,240.07776 C67.3696296,238.857155 68.5140741,238.017989 69.7348148,238.170564 C70.9555556,238.32314 71.7948148,239.467457 71.6422222,240.688062 C71.4896296,241.832379 70.3451852,242.747833 69.1244444,242.595258 Z" id="Shape"></path>
                                    <path d="M63.5548148,192.321586 C62.9444444,192.245298 62.4866667,191.711284 62.562963,191.100981 C62.6392593,190.490679 63.1733333,190.032952 63.7837037,190.10924 C64.3940741,190.185527 64.8518519,190.719542 64.7755556,191.329845 C64.6992593,191.940147 64.1651852,192.397874 63.5548148,192.321586 Z" id="Shape"></path>
                                    <path d="M244.682222,6.10302535 C243.08,5.8741619 241.935556,4.42469338 242.088148,2.74636141 C242.317037,1.14431725 243.766667,-1.11050058e-13 245.445185,0.152575634 C247.047407,0.381439084 248.191852,1.8309076 248.039259,3.50923957 C247.734074,5.18757155 246.284444,6.3318888 244.682222,6.10302535 Z" id="Shape"></path>
                                    <path d="M7.85851852,258.997138 C6.63777778,258.844563 5.79851852,257.700245 5.95111111,256.47964 C6.1037037,255.259035 7.24814815,254.419869 8.46888889,254.572445 C9.68962963,254.72502 10.5288889,255.869338 10.3762963,257.089943 C10.2237037,258.23426 9.07925926,259.149714 7.85851852,258.997138 Z" id="Shape"></path>
                                    <path d="M60.1977778,166.002289 C58.977037,165.849714 58.1377778,164.705397 58.2903704,163.484791 C58.442963,162.264186 59.5874074,161.42502 60.8081481,161.577596 C62.0288889,161.730172 62.8681481,162.874489 62.7155556,164.095094 C62.4866667,165.315699 61.4185185,166.231153 60.1977778,166.002289 Z" id="Shape"></path>
                                    <path d="M72.9392593,295.004988 C71.7185185,294.852412 70.8792593,293.708095 71.0318519,292.48749 C71.1844444,291.266885 72.3288889,290.427719 73.5496296,290.580294 C74.7703704,290.73287 75.6096296,291.877187 75.457037,293.097792 C75.2281481,294.24211 74.16,295.157563 72.9392593,295.004988 Z" id="Shape"></path>
                                    <path d="M173.421481,211.927555 C172.811111,211.851267 172.353333,211.317253 172.42963,210.70695 C172.505926,210.096648 173.04,209.638921 173.65037,209.715209 C174.260741,209.791496 174.718519,210.325511 174.642222,210.935814 C174.565926,211.622404 174.031852,212.003843 173.421481,211.927555 Z" id="Shape"></path>
                                    <path d="M109.408889,182.40417 C108.798519,182.327882 108.340741,181.793868 108.417037,181.183565 C108.493333,180.573262 109.027407,180.115536 109.637778,180.191823 C110.248148,180.268111 110.705926,180.802126 110.62963,181.412428 C110.553333,182.099019 110.019259,182.480458 109.408889,182.40417 Z" id="Shape"></path>
                                </g>
                            </g>
                        </g>
                    </g>
                </g>
            </g>
        </g>
    </g>
</svg>