<?xml version="1.0" encoding="UTF-8" standalone="no"?>
<svg width="1224px" height="204px" viewBox="0 0 1224 204" version="1.1" xmlns="http://www.w3.org/2000/svg" xmlns:xlink="http://www.w3.org/1999/xlink">
    <!-- Generator: Sketch 45.2 (43514) - http://www.bohemiancoding.com/sketch -->
    <title>Group 2</title>
    <desc>Created with Sketch.</desc>
    <defs></defs>
    <g id="Page-1" stroke="none" stroke-width="1" fill="none" fill-rule="evenodd">
        <g id="Desktop-HD" transform="translate(-106.000000, -461.000000)">
            <g id="Group-2" transform="translate(104.000000, 461.000000)">
                <text id="Visite-PatternFly.or" font-family="OpenSans, Open Sans" font-size="16" font-weight="normal">
                    <tspan x="363.0625" y="178" fill="#808080">Visite </tspan>
                    <tspan x="331.027344" y="200" fill="#29ABE2">PatternFly.org</tspan>
                </text>
                <text id="View-the-Design-Guid" font-family="OpenSans, Open Sans" font-size="16" font-weight="normal" fill="#808080">
                    <tspan x="601.863281" y="178">View the </tspan>
                    <tspan x="566.558594" y="200">Design Guidelines</tspan>
                </text>
                <text id="Pull-Request-to-Patt" font-family="OpenSans, Open Sans" font-size="16" font-weight="normal" fill="#808080">
                    <tspan x="1068.03906" y="178">Pull Request to</tspan>
                    <tspan x="1021.50391" y="200">PatternFly - Showcase Repo</tspan>
                </text>
                <text id="A-new-component/-A-n" font-family="OpenSans, Open Sans" font-size="16" font-weight="normal" fill="#808080">
                    <tspan x="806.371094" y="178">A new component</tspan>
                    <tspan x="941.628906" y="178" font-family="PingFangSC-Regular, PingFang SC">/</tspan>
                    <tspan x="774.824" y="200" font-family="PingFangSC-Regular, PingFang SC">A new idea / A bug fixing…</tspan>
                </text>
                <text id="How-to-contribute" font-family="OpenSans, Open Sans" font-size="24" font-weight="normal" fill="#000000">
                    <tspan x="0" y="108">How to contribute</tspan>
                </text>
                <circle id="Oval" fill="#29ABE2" cx="388" cy="70" r="70"></circle>
                <circle id="Oval" fill="#29ABE2" cx="633" cy="70" r="70"></circle>
                <circle id="Oval" fill="#29ABE2" cx="878" cy="70" r="70"></circle>
                <circle id="Oval" fill="#29ABE2" cx="1123" cy="70" r="70"></circle>
                <path d="M387.504267,26 L344,68.5449242 L361.339439,93.1127237 L374.57049,90.0743364 L387.58304,108.369366 L400.571208,90.1052829 L413.655966,93.1089726 L431.000094,68.5449242 L387.504267,26 Z M390.687071,32.5428482 L413.57438,60.5325844 L406.984643,69.5239601 L390.687071,32.5428482 Z M361.424776,60.5325844 L384.463066,32.5522259 L368.123295,69.6749417 L361.424776,60.5325844 Z M381.834486,88.40041 L387.499578,33.1974143 L393.163732,88.40041 L387.488325,96.1754931 L381.834486,88.40041 Z M389.374188,33.8454161 L405.799297,71.1359934 L394.938938,85.9546958 L389.374188,33.8454161 Z M369.303014,71.2832239 L385.698114,33.8876159 L380.060218,85.9546958 L369.303014,71.2832239 Z M346.258159,68.7521722 L377.225328,38.4798945 L359.242576,60.476318 L367.322436,71.4979741 L365.042708,76.6716724 L373.489237,88.5495161 L362.082155,91.1687185 L346.258159,68.7521722 Z M401.659025,88.5823382 L410.127123,76.6716724 L407.785502,71.3563702 L415.759393,60.4791313 L397.776642,38.4827078 L428.740997,68.7521722 L412.917001,91.1687185 L401.659025,88.5823382 Z M396.101778,87.3079035 L396.726335,86.4498404 L396.722584,86.4442138 L406.608596,72.9618391 L408.154985,76.4738022 L399.838806,88.164091 L396.101778,87.3079035 Z M367.014846,76.4738022 L368.494653,73.1062562 L378.274697,86.4442138 L378.90113,87.3079035 L375.306642,88.1303312 L367.014846,76.4738022 Z M394.985827,88.823346 L398.750051,89.6917246 L387.583978,105.388183 L376.393522,89.6560892 L380.005827,88.823346 L387.482698,99.111663 L394.985827,88.823346 Z" id="Page-1" fill="#D4EEF9"></path>
                <g id="Group" transform="translate(479.000000, 64.000000)" stroke="#979797">
                    <path d="M0.5,3.5 L66.5,3.5" id="Line" stroke-linecap="square"></path>
                    <polygon id="Triangle" fill="#9A9A9A" points="69 3 62 6 62 0"></polygon>
                </g>
                <g id="Group" transform="translate(718.000000, 64.000000)" stroke="#979797">
                    <path d="M0.5,3.5 L66.5,3.5" id="Line" stroke-linecap="square"></path>
                    <polygon id="Triangle" fill="#9A9A9A" points="69 3 62 6 62 0"></polygon>
                </g>
                <g id="Group" transform="translate(970.000000, 64.000000)" stroke="#979797">
                    <path d="M0.5,3.5 L66.5,3.5" id="Line" stroke-linecap="square"></path>
                    <polygon id="Triangle" fill="#9A9A9A" points="69 3 62 6 62 0"></polygon>
                </g>
                <path d="M1124.24253,34 C1105.33089,34 1090,49.3793487 1090,68.3507678 C1089.99891,83.137029 1099.43016,96.2648761 1113.41333,100.941059 C1115.12546,101.263097 1115.75463,100.202551 1115.75463,99.2879281 C1115.75463,98.4720974 1115.7247,96.3122593 1115.71183,93.4482976 C1106.18386,95.5222587 1104.17637,88.8409673 1104.17637,88.8409673 C1102.61841,84.8735207 1100.36689,83.8171675 1100.36689,83.8171675 C1097.26366,81.6874367 1100.60666,81.7303751 1100.60666,81.7303751 C1104.0437,81.9708137 1105.85004,85.268521 1105.85004,85.268521 C1108.90612,90.5199282 1113.86703,89.004167 1115.82318,88.1239286 C1116.13133,85.9040438 1117.01306,84.3882826 1117.99327,83.5295134 C1110.38718,82.6707442 1102.39578,79.7165446 1102.39578,66.5559067 C1102.39578,62.8074295 1103.72268,59.7416067 1105.91851,57.3370529 C1105.53328,56.4697296 1104.3776,52.9787992 1106.21813,48.2470145 C1106.21813,48.2470145 1109.08595,47.3238376 1115.63483,51.7679682 C1118.42498,51.0049719 1121.30349,50.6150873 1124.19546,50.6086298 C1127.08743,50.6150873 1129.96586,51.0049719 1132.75609,51.7679682 C1139.26218,47.3238376 1142.12999,48.2470145 1142.12999,48.2470145 C1143.97052,52.9787992 1142.81484,56.4697296 1142.47241,57.3370529 C1144.77659,59.8453466 1146.03302,63.1453182 1145.98227,66.5559067 C1145.98227,79.7509289 1137.97808,82.6578291 1130.35912,83.5037671 C1131.55761,84.5342901 1132.67049,86.6382746 1132.67049,89.8586591 C1132.67049,94.4530743 1132.62769,98.1457819 1132.62769,99.2621818 C1132.62769,100.163889 1133.22693,101.237351 1134.98186,100.893843 C1149.00725,96.2862614 1158.49041,83.1557307 1158.48506,68.3507678 C1158.48506,49.3793487 1143.15417,34 1124.24253,34" id="github" fill="#FFFFFF"></path>
                <path d="M654.326863,75.7590361 L645.180946,59.5662651 L623.078313,59.5662651 L613.932396,75.7590361 L654.326863,75.7590361 Z M655.470103,77.7831325 L665.759259,96 L602.5,96 L612.789157,77.7831325 L655.470103,77.7831325 Z M644.037706,57.5421687 L634.12963,40 L624.221553,57.5421687 L644.037706,57.5421687 Z" id="Combined-Shape" fill="#FFFFFF"></path>
                <path d="M855,60.9531205 C855,54.3721287 857.332557,48.7578652 861.965643,44.0483796 C866.599576,39.339064 872.227572,37 878.820737,37 C885.413649,37 891.041645,39.339404 895.738533,44.0483796 C900.434065,48.7580351 902.766283,54.3721287 902.766283,60.9531205 C902.766283,61.8573886 902.735187,62.7931842 902.641221,63.6979622 C902.486078,63.8538148 902.517175,64.1653501 902.517175,64.3212027 L902.143935,66.567299 C901.988284,66.567299 902.019889,66.7855267 902.019889,66.9416343 C901.77078,67.7833574 901.522095,68.5317729 901.27341,69.1871357 L901.27341,69.3120558 C901.27341,69.3120558 901.242313,69.3429884 901.148855,69.4364659 C900.806881,70.341074 900.49558,71.1523744 900.153437,71.8067175 C900.153437,71.900535 900.122256,71.9319775 900.029052,71.9319775 C899.624377,72.7737006 899.158442,73.5540684 898.660563,74.302229 C898.163531,75.0508995 897.634302,75.7996549 897.043219,76.5477305 C897.043219,76.5477305 897.012123,76.579173 896.981789,76.6108704 L896.919428,76.6719707 C896.422057,77.2650435 895.831229,77.8263339 895.178292,78.4194916 C895.178292,78.4194916 895.1161,78.4504242 894.991545,78.5439018 C894.680498,78.7618745 894.649402,78.9494245 894.306665,79.2924023 C894.151523,79.2924023 893.934527,79.3856249 893.934527,79.5422423 L892.752362,80.4769332 L892.503338,80.6639733 L892.316845,80.7894032 C891.571128,81.3818812 891.041475,82.037329 890.699501,82.7854895 C890.357612,83.533905 890.047074,84.063838 889.70493,84.4073256 C889.362787,84.7497934 888.741116,84.9061559 887.838647,84.9061559 L869.92628,84.9061559 C869.024659,84.9061559 868.402734,84.7494535 868.060845,84.4073256 C867.718447,84.063583 867.37605,83.533905 867.00298,82.7854895 C866.629825,82.037329 866.101443,81.3818812 865.448676,80.7894032 C865.354879,80.7894032 865.293279,80.7579608 865.199482,80.6639733 L865.01299,80.4769332 L863.831332,79.5422423 L863.458093,79.2924023 L862.960977,78.7940818 C862.960977,78.7940818 862.836168,78.6686518 862.587822,78.4194916 L860.84567,76.6719707 C860.84567,76.6719707 860.815082,76.6418029 860.783986,76.6108704 L860.721539,76.5477305 C859.570724,75.0508995 858.575814,73.5844062 857.736554,71.9319775 C857.642842,71.9319775 857.611491,71.9007899 857.611491,71.8067175 C857.269602,71.1523744 856.958724,70.341074 856.61692,69.4364659 C856.523462,69.4364659 856.492026,69.4052784 856.492026,69.3120558 L856.492026,69.1871357 C856.24385,68.5316879 855.994741,67.7832724 855.746056,66.9416343 C855.746056,66.9416343 855.714959,66.8790043 855.683609,66.7545941 L855.621247,66.567554 C855.46585,65.912701 855.34172,65.1640306 855.248177,64.3214577 C855.248177,64.16569 855.123792,63.8540697 855.123792,63.6983021 C855.03135,62.7931842 855.000254,61.8574736 855.000254,60.9531205 L855,60.9531205 Z M869.056094,88.8985835 L888.959044,88.8985835 C890.109605,88.8985835 890.948865,89.7403066 890.948865,90.8947547 C890.948865,92.0484381 890.109605,92.8904161 888.959044,92.8904161 L869.056094,92.8904161 C867.905194,92.8904161 867.065511,92.0484381 867.065511,90.8947547 C867.065511,89.7403066 867.905194,88.8985835 869.056094,88.8985835 Z M869.92645,96.8830136 L887.963371,96.8830136 L880.62398,100.624921 C879.47325,101.125026 878.167377,101.125026 877.016647,100.624921 L869.926535,96.8830136 L869.92645,96.8830136 Z M880.997474,48.9766027 C883.392393,48.9766027 885.662249,49.9435008 887.777133,51.9084846 C889.891846,53.8729585 890.948865,56.3060949 890.948865,59.2067893 C890.948865,60.20462 891.788548,61.2029605 892.939109,61.2029605 C894.090008,61.2029605 894.929438,60.20462 894.929438,59.2067893 C894.929438,54.871299 893.530191,51.4403319 890.699586,48.8521926 C887.870082,46.2632035 884.635904,44.9840902 880.997474,44.9840902 C879.846829,44.9840902 879.007145,45.8260683 879.007145,46.9801765 C879.007145,48.1343697 879.846913,48.9766027 880.997474,48.9766027 L880.997474,48.9766027 Z" id="灯泡" fill="#FFFFFF"></path>
            </g>
        </g>
    </g>
</svg>