<?xml version="1.0" encoding="utf-8"?>
<!-- Generator: Adobe Illustrator 16.0.4, SVG Export Plug-In . SVG Version: 6.00 Build 0)  -->
<svg version="1.2" baseProfile="tiny" id="Layer_1" xmlns="http://www.w3.org/2000/svg" xmlns:xlink="http://www.w3.org/1999/xlink"
	 x="0px" y="0px" width="237px" height="10px" viewBox="-0.038 0.48 237 10" xml:space="preserve">
<g>
	<path fill="#FFFFFF" d="M4.615,10.273l-1.39-2.871H2.274v2.871h-2.312V1.757H3.77c0.494,0,0.947,0.051,1.356,0.152
		c0.41,0.102,0.761,0.262,1.053,0.48c0.292,0.22,0.518,0.505,0.676,0.857c0.157,0.354,0.236,0.78,0.236,1.284
		c0,0.641-0.138,1.163-0.414,1.569C6.4,6.506,6.026,6.813,5.554,7.024l1.707,3.249H4.615z M4.505,3.934
		c-0.159-0.17-0.428-0.256-0.801-0.256H2.274V5.54h1.394c0.392,0,0.668-0.08,0.831-0.243c0.163-0.161,0.245-0.397,0.245-0.705
		C4.744,4.324,4.664,4.105,4.505,3.934z"/>
	<path fill="#FFFFFF" d="M8.672,10.273V1.757h6.521V3.74h-4.184v1.144h2.518v1.947h-2.518v1.46h4.269v1.982H8.672z"/>
	<path fill="#FFFFFF" d="M23.853,7.992C23.66,8.54,23.369,8.98,22.979,9.319c-0.391,0.336-0.87,0.578-1.443,0.729
		c-0.57,0.149-1.234,0.225-1.988,0.225h-2.761V1.757h2.979c0.665,0,1.271,0.068,1.812,0.207c0.542,0.138,1.004,0.371,1.381,0.699
		s0.669,0.76,0.876,1.295c0.206,0.536,0.31,1.205,0.31,2.008C24.146,6.768,24.048,7.444,23.853,7.992z M21.622,4.994
		C21.552,4.709,21.44,4.479,21.288,4.3c-0.155-0.179-0.358-0.31-0.608-0.396c-0.252-0.085-0.56-0.128-0.924-0.128H19.17v4.478h0.512
		c0.365,0,0.678-0.039,0.937-0.116c0.259-0.076,0.472-0.203,0.638-0.377c0.167-0.174,0.286-0.404,0.359-0.693
		c0.073-0.287,0.109-0.643,0.109-1.065C21.725,5.613,21.691,5.277,21.622,4.994z"/>
	<path fill="#FFFFFF" d="M34.643,10.273V6.916h-2.651v3.357h-2.409V1.757h2.409V4.86h2.651V1.757h2.409v8.516H34.643z"/>
	<path fill="#FFFFFF" d="M44.278,10.273l-0.462-1.497h-2.554l-0.463,1.497h-2.53l3.09-8.516h2.385l3.089,8.516H44.278z
		 M43.087,6.343c-0.073-0.276-0.139-0.515-0.195-0.719c-0.057-0.201-0.107-0.385-0.152-0.547s-0.083-0.31-0.115-0.443
		s-0.061-0.274-0.086-0.42c-0.023,0.146-0.052,0.288-0.085,0.425c-0.032,0.138-0.07,0.289-0.114,0.451
		c-0.045,0.161-0.096,0.344-0.153,0.547c-0.056,0.203-0.121,0.437-0.194,0.705l-0.158,0.561h1.41L43.087,6.343z"/>
	<path fill="#FFFFFF" d="M51.286,3.814v6.459h-2.36V3.814h-2.385V1.757h7.129v2.057H51.286z"/>
	<path fill="#FFFFFF" d="M58.964,2.721c-0.081,0.194-0.192,0.363-0.337,0.506c-0.144,0.144-0.311,0.255-0.506,0.337
		c-0.195,0.081-0.405,0.122-0.632,0.122s-0.438-0.041-0.633-0.122s-0.364-0.192-0.507-0.337c-0.143-0.144-0.255-0.312-0.335-0.506
		c-0.082-0.194-0.123-0.405-0.123-0.632s0.041-0.439,0.123-0.633c0.079-0.194,0.191-0.363,0.335-0.506s0.312-0.255,0.507-0.336
		c0.195-0.082,0.406-0.123,0.633-0.123s0.438,0.041,0.632,0.123c0.194,0.08,0.363,0.192,0.506,0.336
		c0.144,0.143,0.255,0.312,0.337,0.506c0.081,0.193,0.122,0.406,0.122,0.633C59.086,2.317,59.045,2.527,58.964,2.721z M58.662,1.565
		c-0.065-0.159-0.153-0.293-0.265-0.405c-0.112-0.112-0.247-0.199-0.403-0.262c-0.156-0.062-0.323-0.093-0.504-0.093
		c-0.184,0-0.352,0.031-0.507,0.093c-0.156,0.062-0.289,0.148-0.4,0.262c-0.112,0.112-0.2,0.246-0.266,0.405
		c-0.064,0.157-0.097,0.331-0.097,0.524c0,0.191,0.032,0.366,0.097,0.523c0.065,0.159,0.153,0.293,0.266,0.405
		c0.111,0.111,0.245,0.199,0.4,0.262c0.155,0.062,0.323,0.093,0.507,0.093c0.181,0,0.348-0.031,0.504-0.093
		c0.157-0.062,0.291-0.149,0.403-0.262c0.111-0.112,0.199-0.246,0.265-0.405c0.064-0.157,0.097-0.332,0.097-0.523
		C58.758,1.896,58.726,1.722,58.662,1.565z M57.772,2.917L57.49,2.333h-0.194v0.584h-0.474V1.181H57.6
		c0.203,0,0.366,0.044,0.49,0.129c0.125,0.086,0.187,0.232,0.187,0.438c0,0.133-0.029,0.239-0.087,0.321
		c-0.057,0.081-0.132,0.144-0.227,0.188l0.344,0.659L57.772,2.917L57.772,2.917z M57.75,1.626c-0.033-0.034-0.088-0.051-0.164-0.051
		h-0.291v0.376h0.283c0.079,0,0.136-0.016,0.169-0.048c0.035-0.033,0.051-0.08,0.051-0.143C57.798,1.706,57.783,1.662,57.75,1.626z"
		/>
	<path fill="#FFFFFF" d="M69.313,4.239c-0.153-0.291-0.354-0.519-0.601-0.681c-0.248-0.162-0.566-0.244-0.955-0.244
		c-0.315,0-0.601,0.067-0.852,0.2c-0.252,0.135-0.462,0.321-0.633,0.561c-0.169,0.238-0.3,0.523-0.389,0.852
		c-0.089,0.327-0.134,0.69-0.134,1.088c0,0.382,0.045,0.736,0.134,1.064c0.089,0.329,0.221,0.615,0.396,0.859
		c0.173,0.241,0.387,0.433,0.637,0.57c0.251,0.139,0.537,0.209,0.853,0.209c0.39,0,0.707-0.086,0.954-0.257
		c0.247-0.17,0.484-0.444,0.713-0.828l1.435,0.853c-0.292,0.609-0.695,1.081-1.21,1.418c-0.516,0.337-1.162,0.505-1.941,0.505
		c-0.56,0-1.066-0.104-1.52-0.31c-0.455-0.208-0.847-0.501-1.175-0.882c-0.328-0.382-0.582-0.842-0.76-1.381
		c-0.179-0.541-0.268-1.146-0.268-1.819c0-0.648,0.093-1.243,0.278-1.782c0.188-0.539,0.446-1.002,0.779-1.387
		c0.332-0.385,0.729-0.686,1.191-0.9s0.974-0.322,1.532-0.322c0.397,0,0.759,0.047,1.084,0.14c0.323,0.094,0.613,0.224,0.869,0.391
		c0.255,0.166,0.478,0.364,0.67,0.596c0.19,0.231,0.354,0.485,0.491,0.761L69.313,4.239z"/>
	<path fill="#FFFFFF" d="M79.063,7.851c-0.182,0.544-0.439,1.004-0.772,1.382c-0.333,0.377-0.729,0.666-1.192,0.869
		c-0.462,0.202-0.968,0.306-1.521,0.306c-0.56,0-1.068-0.102-1.526-0.301c-0.459-0.196-0.852-0.483-1.18-0.863
		c-0.329-0.378-0.584-0.836-0.767-1.374c-0.183-0.54-0.273-1.154-0.273-1.844c0-0.688,0.091-1.306,0.273-1.85
		c0.183-0.541,0.439-1.002,0.773-1.38c0.332-0.377,0.729-0.667,1.191-0.869c0.462-0.203,0.973-0.305,1.532-0.305
		c0.552,0,1.057,0.1,1.515,0.298s0.851,0.486,1.181,0.864c0.327,0.377,0.584,0.836,0.766,1.374c0.183,0.541,0.273,1.154,0.273,1.843
		C79.336,6.692,79.246,7.309,79.063,7.851z M77.026,4.02c-0.372-0.471-0.859-0.706-1.459-0.706c-0.601,0-1.08,0.231-1.442,0.694
		c-0.36,0.461-0.541,1.127-0.541,1.993c0,0.868,0.187,1.538,0.559,2.009c0.374,0.47,0.86,0.705,1.46,0.705s1.081-0.23,1.442-0.693
		c0.36-0.462,0.541-1.128,0.541-1.995S77.399,4.49,77.026,4.02z"/>
	<path fill="#FFFFFF" d="M87.317,10.273V7.147c0-0.114,0.002-0.26,0.007-0.439c0.003-0.177,0.006-0.36,0.006-0.546
		c0-0.187,0.001-0.361,0.006-0.523c0.004-0.162,0.006-0.283,0.006-0.365c-0.064,0.162-0.151,0.378-0.262,0.645
		c-0.109,0.268-0.222,0.524-0.336,0.768l-1.732,3.783L83.29,6.685c-0.113-0.243-0.225-0.5-0.334-0.768
		c-0.109-0.267-0.196-0.482-0.261-0.645c0,0.081,0.001,0.203,0.006,0.365c0.004,0.162,0.006,0.337,0.006,0.523
		s0.003,0.369,0.006,0.546c0.005,0.18,0.007,0.325,0.007,0.439v3.126h-1.666V1.757h1.643l1.771,3.855
		c0.057,0.122,0.112,0.25,0.169,0.384s0.111,0.266,0.164,0.396c0.052,0.13,0.101,0.251,0.146,0.366
		c0.044,0.112,0.079,0.206,0.103,0.279c0.058-0.162,0.138-0.38,0.244-0.651c0.106-0.272,0.217-0.529,0.33-0.773l1.719-3.855h1.667
		v8.516H87.317z"/>
	<path fill="#FFFFFF" d="M97.475,10.273V7.147c0-0.114,0.002-0.26,0.007-0.439c0.003-0.177,0.006-0.36,0.006-0.546
		c0-0.187,0.001-0.361,0.006-0.523C97.498,5.476,97.5,5.355,97.5,5.273c-0.065,0.162-0.152,0.378-0.262,0.645
		c-0.109,0.268-0.222,0.524-0.336,0.768l-1.732,3.783l-1.723-3.783c-0.113-0.243-0.225-0.5-0.333-0.768
		c-0.109-0.267-0.197-0.482-0.262-0.645c0,0.081,0.002,0.203,0.007,0.365s0.006,0.337,0.006,0.523s0.002,0.369,0.006,0.546
		c0.005,0.18,0.008,0.325,0.008,0.439v3.126H91.21V1.757h1.642l1.773,3.855c0.057,0.122,0.112,0.25,0.169,0.384
		s0.111,0.266,0.164,0.396c0.052,0.13,0.101,0.251,0.145,0.366c0.045,0.112,0.079,0.206,0.104,0.279
		c0.056-0.162,0.137-0.38,0.243-0.651c0.106-0.272,0.216-0.529,0.329-0.773l1.72-3.855h1.667v8.516H97.475z"/>
	<path fill="#FFFFFF" d="M108.125,7.851c-0.183,0.544-0.44,1.004-0.772,1.382c-0.333,0.377-0.73,0.666-1.192,0.869
		c-0.461,0.202-0.969,0.306-1.52,0.306c-0.561,0-1.069-0.102-1.527-0.301c-0.458-0.196-0.852-0.483-1.18-0.863
		c-0.329-0.378-0.584-0.836-0.767-1.374c-0.183-0.54-0.273-1.154-0.273-1.844c0-0.688,0.091-1.306,0.273-1.85
		c0.183-0.541,0.439-1.002,0.773-1.38c0.331-0.377,0.729-0.667,1.19-0.869c0.463-0.203,0.975-0.305,1.533-0.305
		c0.552,0,1.057,0.1,1.515,0.298s0.851,0.486,1.181,0.864c0.327,0.377,0.583,0.836,0.766,1.374c0.184,0.541,0.273,1.154,0.273,1.843
		C108.398,6.692,108.308,7.309,108.125,7.851z M106.086,4.02c-0.372-0.471-0.859-0.706-1.46-0.706c-0.6,0-1.079,0.231-1.441,0.694
		c-0.36,0.461-0.541,1.127-0.541,1.993c0,0.868,0.187,1.538,0.56,2.009c0.373,0.47,0.859,0.705,1.459,0.705
		c0.601,0,1.081-0.23,1.442-0.693c0.36-0.462,0.541-1.128,0.541-1.995S106.46,4.49,106.086,4.02z"/>
	<path fill="#FFFFFF" d="M115.502,10.273l-3.125-4.648c-0.106-0.162-0.219-0.334-0.336-0.517c-0.117-0.182-0.205-0.329-0.261-0.443
		c0,0.08,0.002,0.2,0.006,0.358c0.003,0.158,0.006,0.331,0.006,0.517c0,0.179,0.002,0.358,0.006,0.535
		c0.005,0.179,0.006,0.329,0.006,0.451v3.747h-1.69V1.757h1.643l3.008,4.501c0.104,0.162,0.216,0.334,0.334,0.517
		c0.116,0.183,0.202,0.33,0.261,0.444c0-0.082-0.003-0.201-0.007-0.359c-0.005-0.158-0.007-0.326-0.007-0.504
		c0-0.188-0.002-0.369-0.006-0.548c-0.005-0.179-0.007-0.329-0.007-0.45V1.757h1.69v8.516H115.502z"/>
	<path fill="#FFFFFF" d="M128.642,9.391c-0.606,0.676-1.452,1.017-2.537,1.017c-0.511,0-0.979-0.087-1.402-0.256
		c-0.426-0.172-0.787-0.42-1.087-0.75c-0.3-0.328-0.533-0.731-0.698-1.209c-0.166-0.479-0.25-1.03-0.25-1.654V1.757h1.692v4.756
		c0,0.689,0.154,1.232,0.462,1.63c0.31,0.396,0.737,0.596,1.283,0.596c0.545,0,0.974-0.194,1.287-0.583
		c0.313-0.391,0.47-0.928,0.47-1.618V1.756h1.69v4.756C129.554,7.753,129.25,8.713,128.642,9.391z"/>
	<path fill="#FFFFFF" d="M137.741,8.803c-0.13,0.332-0.333,0.617-0.609,0.856c-0.274,0.237-0.621,0.424-1.04,0.553
		c-0.417,0.131-0.918,0.195-1.502,0.195c-0.714,0-1.363-0.141-1.947-0.414c-0.583-0.276-1.037-0.654-1.362-1.133l1.229-1.095
		c0.301,0.349,0.635,0.599,1.003,0.749c0.369,0.15,0.762,0.224,1.175,0.224c0.512,0,0.886-0.073,1.125-0.221
		c0.24-0.146,0.359-0.381,0.359-0.705c0-0.137-0.023-0.257-0.072-0.358c-0.049-0.101-0.142-0.195-0.274-0.285
		c-0.133-0.089-0.327-0.174-0.577-0.255c-0.252-0.08-0.577-0.167-0.974-0.256c-0.391-0.089-0.748-0.194-1.077-0.316
		s-0.61-0.275-0.846-0.462s-0.417-0.422-0.547-0.705c-0.13-0.284-0.194-0.637-0.194-1.06c0-0.389,0.079-0.736,0.238-1.045
		c0.157-0.309,0.375-0.57,0.65-0.784c0.275-0.216,0.598-0.38,0.966-0.494c0.37-0.113,0.767-0.17,1.188-0.17
		c0.664,0,1.247,0.119,1.745,0.355c0.499,0.236,0.951,0.568,1.357,0.993l-1.229,1.195c-0.276-0.285-0.569-0.502-0.881-0.652
		c-0.312-0.149-0.664-0.225-1.053-0.225c-0.228,0-0.418,0.022-0.571,0.066c-0.155,0.045-0.28,0.104-0.377,0.176
		c-0.099,0.074-0.166,0.154-0.207,0.243c-0.041,0.09-0.062,0.184-0.062,0.279c0,0.138,0.027,0.253,0.079,0.347
		c0.053,0.093,0.144,0.176,0.273,0.249c0.131,0.073,0.306,0.142,0.523,0.206c0.22,0.064,0.498,0.138,0.839,0.219
		s0.679,0.177,1.016,0.286s0.641,0.261,0.913,0.454c0.271,0.194,0.492,0.441,0.662,0.74c0.171,0.301,0.255,0.682,0.255,1.142
		C137.934,8.103,137.87,8.471,137.741,8.803z"/>
	<path fill="#FFFFFF" d="M139.736,10.273V1.757h5.899v1.666h-4.21v1.46h2.446v1.666h-2.446v2.056h4.393v1.668H139.736z"/>
	<path fill="#FFFFFF" d="M152.577,10.273l-1.524-3.066h-1.719v3.066h-1.69V1.757h3.966c0.397,0,0.774,0.055,1.131,0.164
		s0.669,0.278,0.937,0.505c0.268,0.228,0.479,0.509,0.633,0.846s0.23,0.732,0.23,1.187c0,0.641-0.135,1.165-0.407,1.575
		c-0.271,0.408-0.68,0.719-1.223,0.93l1.63,3.31H152.577z M152.465,3.672c-0.217-0.166-0.516-0.249-0.898-0.249h-2.233v2.179h2.233
		c0.814,0,1.221-0.367,1.221-1.102C152.788,4.113,152.68,3.836,152.465,3.672z"/>
	<path fill="#FFFFFF" d="M159.855,10.273V1.757h5.9v1.666h-4.209v1.46h2.444v1.666h-2.444v2.056h4.391v1.668H159.855z"/>
	<path fill="#FFFFFF" d="M172.627,10.273l-0.766-1.289c-0.072-0.131-0.156-0.274-0.25-0.433c-0.092-0.158-0.182-0.316-0.268-0.474
		c-0.084-0.158-0.164-0.306-0.236-0.439c-0.074-0.133-0.131-0.24-0.17-0.321c-0.041,0.081-0.096,0.188-0.164,0.321
		c-0.068,0.134-0.146,0.279-0.23,0.432c-0.086,0.155-0.174,0.312-0.268,0.475c-0.094,0.163-0.182,0.309-0.262,0.439l-0.768,1.289
		h-2.03l2.701-4.356l-2.58-4.159h2.032l0.645,1.095c0.072,0.13,0.154,0.274,0.248,0.432s0.184,0.315,0.268,0.474
		c0.086,0.158,0.164,0.304,0.238,0.438c0.072,0.134,0.129,0.241,0.17,0.322c0.039-0.081,0.098-0.188,0.17-0.322
		s0.152-0.278,0.236-0.432c0.086-0.154,0.172-0.311,0.262-0.469s0.176-0.306,0.256-0.443l0.645-1.095h2.031l-2.59,4.159l2.713,4.356
		H172.627z"/>
	<path fill="#FFFFFF" d="M182.725,5.729c-0.156,0.353-0.369,0.644-0.646,0.87s-0.604,0.393-0.982,0.499
		c-0.379,0.104-0.787,0.156-1.227,0.156h-1.877v3.019h-1.691V1.757h3.723c0.396,0,0.775,0.055,1.131,0.164
		c0.357,0.109,0.67,0.278,0.938,0.505c0.268,0.228,0.479,0.509,0.633,0.846s0.23,0.732,0.23,1.187
		C182.955,4.953,182.879,5.376,182.725,5.729z M180.869,3.683c-0.225-0.173-0.527-0.26-0.91-0.26h-1.965v2.165h1.988
		c0.812,0,1.221-0.365,1.221-1.095C181.203,4.125,181.092,3.854,180.869,3.683z"/>
	<path fill="#FFFFFF" d="M184.574,10.273V1.757h5.898v1.666h-4.209v1.46h2.445v1.666h-2.445v2.056h4.393v1.668H184.574z"/>
	<path fill="#FFFFFF" d="M197.416,10.273l-1.525-3.066h-1.719v3.066h-1.691V1.757h3.967c0.396,0,0.775,0.055,1.131,0.164
		c0.357,0.109,0.67,0.278,0.938,0.505c0.268,0.228,0.479,0.509,0.633,0.846c0.152,0.337,0.23,0.732,0.23,1.187
		c0,0.641-0.137,1.165-0.408,1.575c-0.271,0.408-0.68,0.719-1.221,0.93l1.629,3.31H197.416z M197.303,3.672
		c-0.217-0.166-0.514-0.249-0.896-0.249h-2.234v2.179h2.234c0.814,0,1.219-0.367,1.219-1.102
		C197.625,4.113,197.52,3.836,197.303,3.672z"/>
	<path fill="#FFFFFF" d="M201.289,10.273V1.757h1.689v8.516H201.289z"/>
	<path fill="#FFFFFF" d="M205.301,10.273V1.757h5.902v1.666h-4.211v1.46h2.445v1.666h-2.445v2.056h4.391v1.668H205.301z"/>
	<path fill="#FFFFFF" d="M218.598,10.273l-3.125-4.648c-0.105-0.162-0.219-0.334-0.336-0.517c-0.117-0.182-0.205-0.329-0.26-0.443
		c0,0.08,0.002,0.2,0.006,0.358s0.006,0.331,0.006,0.517c0,0.179,0.002,0.358,0.006,0.535c0.004,0.179,0.006,0.329,0.006,0.451
		v3.747h-1.689V1.757h1.641l3.008,4.501c0.105,0.162,0.217,0.334,0.334,0.517s0.203,0.33,0.26,0.444
		c0-0.082-0.002-0.201-0.006-0.359s-0.008-0.326-0.008-0.504c0-0.188-0.002-0.369-0.006-0.547c-0.004-0.179-0.006-0.329-0.006-0.451
		V1.757h1.691v8.516H218.598z"/>
	<path fill="#FFFFFF" d="M227.162,4.239c-0.154-0.291-0.355-0.519-0.602-0.681c-0.248-0.162-0.566-0.244-0.953-0.244
		c-0.318,0-0.602,0.067-0.854,0.2c-0.25,0.135-0.463,0.321-0.631,0.561c-0.172,0.238-0.303,0.523-0.391,0.852
		c-0.09,0.327-0.133,0.69-0.133,1.088c0,0.382,0.043,0.736,0.133,1.064c0.088,0.329,0.221,0.615,0.396,0.859
		c0.174,0.241,0.387,0.433,0.639,0.57c0.25,0.139,0.535,0.209,0.852,0.209c0.389,0,0.707-0.086,0.953-0.257
		c0.248-0.17,0.484-0.444,0.713-0.828l1.436,0.853c-0.293,0.609-0.695,1.081-1.211,1.418s-1.162,0.505-1.939,0.505
		c-0.561,0-1.068-0.104-1.521-0.31c-0.453-0.208-0.846-0.501-1.174-0.882c-0.328-0.382-0.582-0.842-0.76-1.381
		c-0.18-0.541-0.268-1.146-0.268-1.819c0-0.648,0.092-1.243,0.279-1.782c0.186-0.539,0.445-1.002,0.777-1.387s0.73-0.686,1.191-0.9
		c0.463-0.215,0.975-0.322,1.533-0.322c0.396,0,0.76,0.047,1.084,0.14c0.324,0.094,0.613,0.224,0.869,0.391
		c0.256,0.166,0.479,0.364,0.668,0.596c0.191,0.231,0.355,0.485,0.494,0.761L227.162,4.239z"/>
	<path fill="#FFFFFF" d="M230.447,10.273V1.757h5.898v1.666h-4.207v1.46h2.445v1.666h-2.445v2.056h4.391v1.668H230.447z"/>
</g>
</svg>
