<?xml version="1.0" encoding="utf-8"?>
<!-- Generator: Adobe Illustrator 16.0.4, SVG Export Plug-In . SVG Version: 6.00 Build 0)  -->
<svg version="1.2" baseProfile="tiny" id="Layer_1" xmlns="http://www.w3.org/2000/svg" xmlns:xlink="http://www.w3.org/1999/xlink"
	 x="0px" y="0px" width="12px" height="12px" viewBox="250 258 12 12" xml:space="preserve">
<path fill="#FFFFFF" d="M257.483,266.341c-0.296-0.047-0.303-0.862-0.303-0.862s0.871-0.861,1.061-2.02
	c0.511,0,0.825-1.231,0.315-1.665c0.021-0.456,0.655-3.58-2.557-3.58s-2.577,3.124-2.556,3.58c-0.511,0.434-0.195,1.665,0.314,1.665
	c0.189,1.158,1.06,2.02,1.06,2.02s-0.007,0.815-0.303,0.862c-0.954,0.151-4.516,1.723-4.516,3.445h6h6
	C262,268.063,258.438,266.492,257.483,266.341z"/>
</svg>
